<svg width="145" height="137" viewBox="0 0 145 137" fill="none" xmlns="http://www.w3.org/2000/svg">
<path d="M120.708 82.4113C121.131 80.717 122.654 79.5283 124.4 79.5283H139.276C141.752 79.5283 143.569 81.8553 142.969 84.2575L130.67 133.452C130.246 135.147 128.724 136.335 126.978 136.335H112.101C109.625 136.335 107.808 134.008 108.409 131.606L120.708 82.4113Z" fill="black"/>
<path d="M80.938 2.88298C81.3616 1.18864 82.884 0 84.6305 0H99.5068C101.983 0 103.8 2.32701 103.199 4.72921L90.9005 53.9239C90.4769 55.6183 88.9546 56.8069 87.2081 56.8069H72.3318C69.8557 56.8069 68.0388 54.4799 68.6393 52.0777L80.938 2.88298Z" fill="black"/>
<path d="M13.481 39.8058C13.9046 38.1115 15.4269 36.9229 17.1734 36.9229H32.0497C34.5259 36.9229 36.3427 39.2499 35.7422 41.6521L23.4435 90.8468C23.0199 92.5411 21.4975 93.7298 19.751 93.7298H4.87476C2.39862 93.7298 0.581752 91.4027 1.1823 89.0005L13.481 39.8058Z" fill="black"/>
</svg>
